# xmcd CD database file
#
# Track frame offsets:
#	150
#	16736
#	30618
#	46857
#	65014
#	81220
#	98435
#	113707
#	134604
#	154708
#	174226
#	196373
#	218806
#
# Disc length: 3199 seconds
#
# Revision: 0
# Processed by: cddbd v1.5.1PL0 Copyright (c) Steve Scherf et al.
# Submitted via: CDex 1.51
#
DISCID=a10c7d0d
DTITLE=Eagle-Eye Cherry - KCRW-FM Morning Becomes Eclectic
DYEAR=2001
DGENRE=Blues
TTITLE0=Eagle-Eye Cherry - Comatose
TTITLE1=Eagle-Eye Cherry - Shades Of Gray
TTITLE2=Eagle-Eye Cherry - Promises Made
TTITLE3=Eagle-Eye Cherry - Never Let You Down
TTITLE4=Eagle-Eye Cherry - Feels So Right
TTITLE5=Eagle-Eye Cherry - Death Defied By Will
TTITLE6=Eagle-Eye Cherry - Save Tonight
TTITLE7=Eagle-Eye Cherry - Down In Mississippi
TTITLE8=Eagle-Eye Cherry - Don't Give Up Remix
TTITLE9=Eagle-Eye Cherry - To Love Somebody
TTITLE10=Eagle-Eye Cherry - Shooting Up In Vain
TTITLE11=Eagle-Eye Cherry - When Mermaids Cry
TTITLE12=Eagle-Eye Cherry - Rainbow Wings
EXTD=YEAR: 2001
EXTT0=
EXTT1=
EXTT2=
EXTT3=
EXTT4=
EXTT5=
EXTT6=
EXTT7=
EXTT8=
EXTT9=
EXTT10=
EXTT11=
EXTT12=
PLAYORDER=
